# xmcd
#
# Track frame offsets: 
#        150
#        22513
#        41248
#        58180
#        83260
#        98270
#        125357
#        140372
#        155919
#        177410
#        199402
#        209579
#        224981
#
# Disc length: 3333 seconds
#
# Revision: 3
# Processed by: cddbd v1.5.2PL0 Copyright (c) Steve Scherf et al.
# Submitted via: ExactAudioCopy v1.0b3
#
DISCID=bb0d030d
DTITLE=Чайф - От себя
DYEAR=2006
DGENRE=Rock
TTITLE0=От себя
TTITLE1=Не мечтали
TTITLE2=Ангел
TTITLE3=Белая птица
TTITLE4=Если б я был
TTITLE5=Пригородный блюз №3
TTITLE6=У обочины
TTITLE7=Снился мне Аль Пачино
TTITLE8=А у нас как всегда
TTITLE9=Никогда не поздно
TTITLE10=Бедная собачка
TTITLE11=За годом год
TTITLE12=Иначе
EXTD=Чайф:\nВладимир Шахрин\nВладимир Бегунов\nВячеслав Двинин\nВалери
EXTD=й Северин
EXTT0=
EXTT1=
EXTT2=
EXTT3=
EXTT4=
EXTT5=
EXTT6=
EXTT7=
EXTT8=
EXTT9=
EXTT10=
EXTT11=
EXTT12=
PLAYORDER=
